<?xml version="1.0" encoding="utf-8"?>
<!-- Generated by IcoMoon.io -->
<svg version="1.1" xmlns="http://www.w3.org/2000/svg" xmlns:xlink="http://www.w3.org/1999/xlink" width="2016" height="96" viewBox="0 0 2016 96">
<svg id="icon-aurek1" width="43" height="32" viewBox="0 0 43 32" x="0" y="0">
<path d="M40.321 30.221h-9.673l-11.187-5.97h-13.816v5.97h-4.932v-11.947h19.8l19.807 11.947zM40.456 30.221h-9.673l-11.187-5.97h-13.823v5.97h-4.932v-11.947h20.397l19.217 11.947zM40.456 30.221h-9.673l-11.187-5.97h-13.823v5.97h-4.932v-11.947h20.397l19.217 11.947zM0.778 12.304h19.736l19.807-11.947h-9.673l-11.187 5.97h-13.752v-5.97h-4.932v11.947z"></path>
</svg>
<svg id="icon-besh" width="41" height="32" viewBox="0 0 41 32" x="64" y="0">
<path d="M38.841 12.314l-7.628-11.918h-22.48l-8.026 11.918h5.959l4.212-5.959h17.792l4.212 5.959h5.959zM27.797 18.266h-16.201v-5.874h16.201v5.874zM38.919 18.266l-7.628 11.918h-22.48l-8.019-11.918h5.952l4.212 5.959h17.792l4.212-5.959h5.959z"></path>
</svg>
<svg id="icon-cherek" width="39" height="32" viewBox="0 0 39 32" x="128" y="0">
<path d="M36.653 30.13l-13.471-29.67-22.478 0.042v5.92h18.572l8.371 17.781h-26.943v5.927h35.95z"></path>
</svg>
<svg id="icon-cresh" width="24" height="32" viewBox="0 0 24 32" x="192" y="0">
<path d="M6.184 20.458h-5.851v-19.761h5.851v19.761zM13.997 20.535h-5.858v-10.544h5.858v10.544zM13.997 20.535h-5.858v-10.544h5.858v10.544zM13.997 20.535h-5.858v-10.544h5.858v10.544zM21.804 29.905h-5.858v-19.914h5.858v19.914z"></path>
</svg>
<svg id="icon-dorn" width="35" height="32" viewBox="0 0 35 32" x="256" y="0">
<path d="M32.54 0.593l-22.217 29.416h-6.883l8.842-11.815h-9.864l4.617-5.785h9.472l4.533-5.869h-20.343l4.694-5.946h27.149z"></path>
</svg>
<svg id="icon-enth" width="36" height="32" viewBox="0 0 36 32" x="320" y="0">
<path d="M1.018 29.428l0.788 0.472 0.943 0.155h29.519l1.028-0.12 0.591-0.232 0.275-0.591 0.077-1.021v-25.585l-0.12-0.943-0.275-0.591-0.514-0.317-1.063-0.12h-29.519l-1.098 0.077-0.514 0.239-0.239 0.549-0.113 1.105v9.762h5.983v-5.905h21.566v5.905h-10.783v5.898h10.783v5.905h-21.65v-5.905h-5.983v9.762l0.162 0.866 0.155 0.633z"></path>
</svg>
<svg id="icon-esk" width="39" height="32" viewBox="0 0 39 32" x="384" y="0">
<path d="M37.331 6.376h-2.928v23.728h-5.856v-23.728l-10.121 23.77h-5.693l-12.023-29.704h5.849l9.095 23.254 9.809-23.254h11.868v5.934z"></path>
</svg>
<svg id="icon-forn" width="45" height="32" viewBox="0 0 45 32" x="448" y="0">
<path d="M42.828 6.532l-2.479 1.279-3.515 1.443-2.637 0.879-2.794 0.793-3.523 0.722-3.029 0.564v12.061h17.977v5.995h-42.113v-22.614h4.394l5.595-0.157 4.952-0.4 3.037-0.4v-6.395h6.152v5.752l2.722-0.479 3.272-0.715 3.201-0.965 2.637-0.879 3.351-1.358 2.801-1.358v6.23zM6.624 13.806v10.389h11.989v-11.182l-2.879 0.314-3.272 0.243-2.715 0.157-3.122 0.079z"></path>
</svg>
<svg id="icon-grek" width="39" height="32" viewBox="0 0 39 32" x="512" y="0">
<path d="M36.653 0.46l-13.471 29.67-22.478-0.042v-29.627h5.927v23.7h12.645l8.371-17.774h-11.931v1.971h-5.92v-7.898h26.858z"></path>
</svg>
<svg id="icon-herf" width="43" height="32" viewBox="0 0 43 32" x="576" y="0">
<path d="M34.559 18.271h-27.877v-5.967h27.877v5.967zM40.533 6.409h-39.818v-6.053h39.818v6.053zM40.533 30.22h-39.818v-5.974h39.818v5.974z"></path>
</svg>
<svg id="icon-isk" width="16" height="32" viewBox="0 0 16 32" x="640" y="0">
<path d="M14.157 29.91h-5.837v-21.656l-4.597 4.597-3.741-3.741 8.414-8.414h5.761v29.214z"></path>
</svg>
<svg id="icon-jenth" width="43" height="32" viewBox="0 0 43 32" x="704" y="0">
<path d="M40.701 0.353l-15.775 29.87h-24.215v-5.975h20.711l7.008-12.905-3.426 2.072-4.060 1.994-3.825 1.275-4.302 0.954-4.060 0.477-4.544 0.157h-3.34v-5.968h3.262l4.145-0.242 4.38-0.634 4.138-1.040 3.746-1.432 3.746-1.752 3.262-1.994 3.59-2.308 3.582-2.55h5.975z"></path>
</svg>
<svg id="icon-krenth" width="34" height="32" viewBox="0 0 34 32" x="768" y="0">
<path d="M32.034 29.988h-5.877v-11.753h-11.277l-8.223 11.753h-5.954l11.907-17.623h13.546v-11.753h5.877v29.376z"></path>
</svg>
<svg id="icon-krill" width="36" height="32" viewBox="0 0 36 32" x="832" y="0">
<path d="M34.155 28.084l-0.077 0.95-0.394 0.549-0.556 0.394-0.943 0.077h-31.479v-5.904h27.545v-17.706h-27.545v-5.904h31.479l0.866 0.077 0.711 0.317 0.317 0.711 0.077 0.859v25.581z"></path>
</svg>
<svg id="icon-leth" width="25" height="32" viewBox="0 0 25 32" x="896" y="0">
<path d="M23.050 29.91h-7.244l-15.422-10.671 3.114-4.674 13.715 9.501v-23.37h5.837v29.214z"></path>
</svg>
<svg id="icon-mern" width="25" height="32" viewBox="0 0 25 32" x="960" y="0">
<path d="M22.815 24.066l-2.264 5.844h-20.172l13.785-29.214h6.854l0.975 0.153 0.509 0.279 0.272 0.543 0.118 0.933v3.936h-5.217l-7.948 17.525h13.088z"></path>
</svg>
<svg id="icon-nen" width="34" height="32" viewBox="0 0 34 32" x="1024" y="0">
<path d="M32.034 29.988h-5.877v-23.5h-11.277l-8.223 23.5h-5.954l8.377-23.5h-5.323v-5.877h28.277v29.376z"></path>
</svg>
<svg id="icon-nern" width="42" height="32" viewBox="0 0 42 32" x="1088" y="0">
<path d="M39.425 30.195h-5.957l-10.812-23.217-10.734 23.217h-6.042l-0.796-1.109-0.718-1.194-0.953-1.671-0.796-1.912-0.789-1.983-0.483-2.303-0.476-2.623-0.156-2.708 0.156-2.701 0.242-2.467 0.476-2.381 0.554-1.827 0.796-1.671 0.796-1.436 0.953-1.187 0.554-0.64h5.644l-0.953 0.953-0.796 1.194-0.789 1.429-0.64 1.436-0.554 1.749-0.476 2.303-0.398 2.545-0.163 2.545 0.163 2.545 0.476 2.701 0.633 2.069 0.64 1.272 0.796 1.109 10.89-23.849h5.964l13.748 29.813z"></path>
</svg>
<svg id="icon-onith" width="40" height="32" viewBox="0 0 40 32" x="1152" y="0">
<path d="M2.373 24.201l1.502 5.942h30.265l1.424-5.942h-33.19zM2.217 23.408l-1.509-5.935 2.295-1.509 1.905-1.983 1.898-2.295 1.587-2.451 1.105-2.776 0.793-2.769 0.637-3.251h16.475l0.475 2.536 0.793 3.166 1.105 2.932 1.587 2.776 1.898 2.295 1.827 1.664 2.295 1.664-1.664 5.935-2.769-1.898-2.776-2.536-2.847-3.407-1.827-2.769-1.261-2.691-0.637-1.905-0.397-1.82h-8.237l-0.63 1.983-0.715 2.295-1.19 2.054-2.061 3.095-2.691 2.925-2.769 2.621-2.691 2.054z"></path>
</svg>
<svg id="icon-orenth" width="29" height="32" viewBox="0 0 29 32" x="1216" y="0">
<path d="M0.972 29.485l-0.272-0.585-0.118-0.933v-25.243l0.153-1.010 0.195-0.627 0.585-0.313 1.010-0.077h9.738v5.844h-5.837v17.525h5.837v5.844h-9.578l-1.17-0.118-0.543-0.306zM15.69 29.91v-5.844h5.844v-17.525h-5.844v-5.844h9.738l1.017 0.077 0.585 0.237 0.272 0.662 0.077 0.975v25.312l-0.077 1.094-0.348 0.425-0.55 0.279-0.975 0.153h-9.738z"></path>
</svg>
<svg id="icon-osk" width="41" height="32" viewBox="0 0 41 32" x="1280" y="0">
<path d="M38.402 24.216l-4.364 5.953h-28.962l-4.364-6.031 9.919-23.726h17.851l9.919 23.804zM14.52 6.365l-7.379 17.851h24.911l-7.457-17.851h-10.075z"></path>
</svg>
<svg id="icon-peth" width="26" height="32" viewBox="0 0 26 32" x="1344" y="0">
<path d="M24.527 0.697v29.214h-19.009l-0.78-1.094-0.704-1.163-0.933-1.637-0.78-1.874-0.78-1.943-0.467-2.257-0.467-2.57-0.153-2.654 0.153-2.647 0.237-2.417 0.467-2.333 0.543-1.79 0.78-1.637 0.78-1.407 0.933-1.163 0.543-0.627h7.091l0.857 0.118 0.508 0.237 0.306 0.543 0.042 0.78v4.165h-5.768v-2.333l-0.62 1.4-0.543 1.714-0.467 2.257-0.39 2.494-0.16 2.494 0.16 2.494 0.467 2.647 0.62 2.027 0.627 1.247 0.773 1.087h10.288v-23.37h5.844z"></path>
</svg>
<svg id="icon-qek" width="36" height="32" viewBox="0 0 36 32" x="1408" y="0">
<path d="M0.705 2.509l0.077-0.95 0.394-0.549 0.549-0.394 0.943-0.077h29.515l1.027 0.155 0.549 0.281 0.274 0.549 0.12 0.985v14.167h-5.904v-10.233h-21.64v17.706h15.659l-9.247 5.904h-10.465l-0.788-0.12-0.549-0.274-0.394-0.669-0.084-0.866-0.035-25.617z"></path>
</svg>
<svg id="icon-resh" width="35" height="32" viewBox="0 0 35 32" x="1472" y="0">
<path d="M32.54 0.592l-22.217 29.416h-6.883l17.601-23.47h-20.343l4.694-5.946h27.149z"></path>
</svg>
<svg id="icon-senth" width="42" height="32" viewBox="0 0 42 32" x="1536" y="0">
<path d="M2.544 18.036l-1.829 5.495 18.784 6.605 1.594-5.417-18.549-6.684z"></path>
<path d="M40.254 30.214h-7.958l-29.852-29.852h8.356l23.489 23.482v-23.482h5.965v29.852z"></path>
</svg>
<svg id="icon-shen" width="47" height="32" viewBox="0 0 47 32" x="1600" y="0">
<path d="M45.064 0.256l-13.649 30.060-22.774-0.043v-8.002h6.005v1.997h12.804l8.488-18.007h-21.292v1.997h-6.005v-8.002h36.423zM6.158 0.299v8.002h-5.439v-8.002h5.439zM6.237 22.271v8.002h-5.439v-8.002h5.439z"></path>
</svg>
<svg id="icon-thesh" width="36" height="32" viewBox="0 0 36 32" x="1664" y="0">
<path d="M33.761 29.66l-0.633 0.239-0.943 0.155h-29.515l-1.020-0.12-0.591-0.232-0.274-0.591-0.077-1.020v-25.581l0.12-0.943 0.274-0.591 0.507-0.317 1.063-0.12h29.515l1.105 0.077 0.514 0.239 0.232 0.549 0.12 1.105v25.574l-0.077 1.063-0.317 0.514zM28.251 24.227v-17.784h-21.647v5.904h9.838v5.897h-9.838v5.982h21.647z"></path>
</svg>
<svg id="icon-trill" width="43" height="32" viewBox="0 0 43 32" x="1728" y="0">
<path d="M28.292 30.234h-14.784l-12.794-15.736h6.752l10.491 12.559v-26.71h5.963v26.547l10.334-12.396h6.674l-12.637 15.736z"></path>
</svg>
<svg id="icon-usk" width="36" height="32" viewBox="0 0 36 32" x="1792" y="0">
<path d="M34.153 28.084l-0.077 0.95-0.394 0.549-0.549 0.394-0.95 0.077h-29.515l-1.020-0.155-0.549-0.282-0.274-0.549-0.12-0.985v-27.544h5.904v23.61h21.64v-17.706h-6.059l-5.904 5.904h-6.531l11.809-11.809h12.59v27.544z"></path>
</svg>
<svg id="icon-vev" width="29" height="32" viewBox="0 0 29 32" x="1856" y="0">
<path d="M27.463 0.697l-10.518 14.649v14.565h-5.837v-14.565l-10.518-14.649h5.837l7.634 10.358 7.558-10.358h5.844z"></path>
</svg>
<svg id="icon-wesk" width="43" height="32" viewBox="0 0 43 32" x="1920" y="0">
<path d="M40.135 0.755l0.235 0.477 0.164 1.118v26.040l-0.121 0.954-0.242 0.52-0.555 0.199-1.075 0.157h-35.76l-1.111-0.121-0.555-0.32-0.242-0.634-0.157-0.919v-25.877l0.114-0.919 0.242-0.676 0.555-0.32 1.075-0.078h35.839l1.118 0.157 0.477 0.242zM34.559 24.246v-17.916h-27.878v17.916h27.878z"></path>
</svg>
<svg id="icon-xesh" width="35" height="32" viewBox="0 0 35 32" x="0" y="64">
<path d="M32.713 27.027l-5.885 2.981h-20.245l-5.878-2.981 13.567-26.439h5.963l12.479 26.439zM24.863 24.123l-7.765-17.102-8.551 17.102h16.317z"></path>
</svg>
<svg id="icon-yirt" width="35" height="32" viewBox="0 0 35 32" x="64" y="64">
<path d="M32.971 0.578l-11.463 29.441h-8.010l-12.797-27.552v-0.786l0.316-0.863 0.786-0.239h11.456l4.865 9.421h-5.574l-3.292-6.907h-2.043l10.207 21.431 9.266-23.944h6.283z"></path>
</svg>
<svg id="icon-zerek" width="36" height="32" viewBox="0 0 36 32" x="128" y="64">
<path d="M34.155 30.053h-31.485l-1.063-0.155-0.514-0.274-0.274-0.514-0.113-0.985v-5.94h5.897v1.963h21.647v-11.802h-11.809l-5.82 5.82h-6.376l11.724-11.724h12.28v-5.904h5.904v29.515z"></path>
</svg>
</svg>
