<!-- Generated by IcoMoon.io -->
<svg version="1.1" xmlns="http://www.w3.org/2000/svg" width="42" height="32" viewBox="0 0 42 32">
<title>nern</title>
<path d="M39.425 30.195h-5.957l-10.812-23.217-10.734 23.217h-6.042l-0.796-1.109-0.718-1.194-0.953-1.671-0.796-1.912-0.789-1.983-0.483-2.303-0.476-2.623-0.156-2.708 0.156-2.701 0.242-2.467 0.476-2.381 0.554-1.827 0.796-1.671 0.796-1.436 0.953-1.187 0.554-0.64h5.644l-0.953 0.953-0.796 1.194-0.789 1.429-0.64 1.436-0.554 1.749-0.476 2.303-0.398 2.545-0.163 2.545 0.163 2.545 0.476 2.701 0.633 2.069 0.64 1.272 0.796 1.109 10.89-23.849h5.964l13.748 29.813z"></path>
</svg>
