<!-- Generated by IcoMoon.io -->
<svg version="1.1" xmlns="http://www.w3.org/2000/svg" width="40" height="32" viewBox="0 0 40 32">
<title>onith</title>
<path d="M2.373 24.201l1.502 5.942h30.265l1.424-5.942h-33.19zM2.217 23.408l-1.509-5.935 2.295-1.509 1.905-1.983 1.898-2.295 1.587-2.451 1.105-2.776 0.793-2.769 0.637-3.251h16.475l0.475 2.536 0.793 3.166 1.105 2.932 1.587 2.776 1.898 2.295 1.827 1.664 2.295 1.664-1.664 5.935-2.769-1.898-2.776-2.536-2.847-3.407-1.827-2.769-1.261-2.691-0.637-1.905-0.397-1.82h-8.237l-0.63 1.983-0.715 2.295-1.19 2.054-2.061 3.095-2.691 2.925-2.769 2.621-2.691 2.054z"></path>
</svg>
