<!-- Generated by IcoMoon.io -->
<svg version="1.1" xmlns="http://www.w3.org/2000/svg" width="26" height="32" viewBox="0 0 26 32">
<title>peth</title>
<path d="M24.527 0.697v29.214h-19.009l-0.78-1.094-0.704-1.163-0.933-1.637-0.78-1.874-0.78-1.943-0.467-2.257-0.467-2.57-0.153-2.654 0.153-2.647 0.237-2.417 0.467-2.333 0.543-1.79 0.78-1.637 0.78-1.407 0.933-1.163 0.543-0.627h7.091l0.857 0.118 0.508 0.237 0.306 0.543 0.042 0.78v4.165h-5.768v-2.333l-0.62 1.4-0.543 1.714-0.467 2.257-0.39 2.494-0.16 2.494 0.16 2.494 0.467 2.647 0.62 2.027 0.627 1.247 0.773 1.087h10.288v-23.37h5.844z"></path>
</svg>
