<?xml version="1.0" encoding="UTF-8" standalone="no"?>
<!DOCTYPE svg PUBLIC "-//W3C//DTD SVG 1.1//EN" "http://www.w3.org/Graphics/SVG/1.1/DTD/svg11.dtd">
<svg version="1.1" xmlns="http://www.w3.org/2000/svg" xmlns:xlink="http://www.w3.org/1999/xlink" preserveAspectRatio="xMidYMid meet" viewBox="14.595900000000016 12.299999999999955 59.91999999999999 46.02063999999996" width="55.92" height="42.02"><defs><path d="M71.33 55.32L57.72 55.32L41.98 46.92L22.54 46.92L22.54 55.32L15.6 55.32L15.6 38.51L43.46 38.51L71.33 55.32ZM71.52 55.32L57.91 55.32L42.17 46.92L22.72 46.92L22.72 55.32L15.78 55.32L15.78 38.51L44.48 38.51L71.52 55.32ZM71.52 55.32L57.91 55.32L42.17 46.92L22.72 46.92L22.72 55.32L15.78 55.32L15.78 38.51L44.48 38.51L71.52 55.32ZM15.69 30.11L43.46 30.11L71.33 13.3L57.72 13.3L41.98 21.7L22.63 21.7L22.63 13.3L15.69 13.3L15.69 30.11Z" id="k2G5tI5u3"></path></defs><g><g><use xlink:href="#k2G5tI5u3" opacity="1" fill="#000000" fill-opacity="1"></use><g><use xlink:href="#k2G5tI5u3" opacity="1" fill-opacity="0" stroke="#000000" stroke-width="1.4" stroke-opacity="0"></use></g></g></g></svg>