<?xml version="1.0" encoding="UTF-8" standalone="no"?>
<!DOCTYPE svg PUBLIC "-//W3C//DTD SVG 1.1//EN" "http://www.w3.org/Graphics/SVG/1.1/DTD/svg11.dtd">
<svg version="1.1" xmlns="http://www.w3.org/2000/svg" xmlns:xlink="http://www.w3.org/1999/xlink" preserveAspectRatio="xMidYMid meet" viewBox="521.844 12.412000000000035 51.644000000000005 45.93999999999994" width="47.64" height="41.94"><defs><path d="M523.29 54.46L524.41 55.13L525.75 55.35L567.69 55.35L569.15 55.18L569.99 54.85L570.38 54.01L570.49 52.56L570.49 16.21L570.32 14.87L569.93 14.03L569.2 13.58L567.69 13.41L525.75 13.41L524.19 13.52L523.46 13.86L523.12 14.64L522.96 16.21L522.96 30.08L531.46 30.08L531.46 21.69L562.1 21.69L562.1 30.08L546.78 30.08L546.78 38.46L562.1 38.46L562.1 46.85L531.34 46.85L531.34 38.46L522.84 38.46L522.84 52.33L523.07 53.56L523.29 54.46Z" id="d4F4Rf8vt"></path></defs><g><g><use xlink:href="#d4F4Rf8vt" opacity="1" fill="#000000" fill-opacity="1"></use><g><use xlink:href="#d4F4Rf8vt" opacity="1" fill-opacity="0" stroke="#000000" stroke-width="1.4" stroke-opacity="0"></use></g></g></g></svg>