<?xml version="1.0" encoding="UTF-8" standalone="no"?>
<!DOCTYPE svg PUBLIC "-//W3C//DTD SVG 1.1//EN" "http://www.w3.org/Graphics/SVG/1.1/DTD/svg11.dtd">
<svg version="1.1" xmlns="http://www.w3.org/2000/svg" xmlns:xlink="http://www.w3.org/1999/xlink" preserveAspectRatio="xMidYMid meet" viewBox="689.279 12.410999999999945 62.940000000000055 45.93900000000008" width="58.94" height="41.94"><defs><path d="M749.22 22.13L745.75 23.92L740.83 25.94L737.14 27.17L733.23 28.28L728.3 29.29L724.06 30.08L724.06 46.96L749.22 46.96L749.22 55.35L690.28 55.35L690.28 23.7L696.43 23.7L704.26 23.48L711.19 22.92L715.44 22.36L715.44 13.41L724.05 13.41L724.05 21.46L727.86 20.79L732.44 19.79L736.92 18.44L740.61 17.21L745.3 15.31L749.22 13.41L749.22 22.13ZM698.55 32.31L698.55 46.85L715.33 46.85L715.33 31.2L711.3 31.64L706.72 31.98L702.92 32.2L698.55 32.31Z" id="c4w1Kgawp"></path></defs><g><g><use xlink:href="#c4w1Kgawp" opacity="1" fill="#000000" fill-opacity="1"></use><g><use xlink:href="#c4w1Kgawp" opacity="1" fill-opacity="0" stroke="#000000" stroke-width="1.4" stroke-opacity="0"></use></g></g></g></svg>