<?xml version="1.0" encoding="UTF-8" standalone="no"?>
<!DOCTYPE svg PUBLIC "-//W3C//DTD SVG 1.1//EN" "http://www.w3.org/Graphics/SVG/1.1/DTD/svg11.dtd">
<svg version="1.1" xmlns="http://www.w3.org/2000/svg" xmlns:xlink="http://www.w3.org/1999/xlink" preserveAspectRatio="xMidYMid meet" viewBox="606.549 169.26099999999997 58.46500000000003 45.93900000000008" width="54.47" height="41.94"><defs><path d="M662.01 212.2L653.63 212.2L638.42 179.54L623.32 212.2L614.82 212.2L613.7 210.64L612.69 208.96L611.35 206.61L610.23 203.92L609.12 201.13L608.44 197.89L607.77 194.2L607.55 190.39L607.77 186.59L608.11 183.12L608.78 179.77L609.56 177.2L610.68 174.85L611.8 172.83L613.14 171.16L613.92 170.26L621.86 170.26L620.52 171.6L619.4 173.28L618.29 175.29L617.39 177.31L616.61 179.77L615.94 183.01L615.38 186.59L615.15 190.17L615.38 193.75L616.05 197.55L616.94 200.46L617.84 202.25L618.96 203.81L634.28 170.26L642.67 170.26L662.01 212.2Z" id="aaHSovJmw"></path></defs><g><g><use xlink:href="#aaHSovJmw" opacity="1" fill="#000000" fill-opacity="1"></use><g><use xlink:href="#aaHSovJmw" opacity="1" fill-opacity="0" stroke="#000000" stroke-width="1.4" stroke-opacity="0"></use></g></g></g></svg>