<?xml version="1.0" encoding="UTF-8" standalone="no"?>
<!DOCTYPE svg PUBLIC "-//W3C//DTD SVG 1.1//EN" "http://www.w3.org/Graphics/SVG/1.1/DTD/svg11.dtd">
<svg version="1.1" xmlns="http://www.w3.org/2000/svg" xmlns:xlink="http://www.w3.org/1999/xlink" preserveAspectRatio="xMidYMid meet" viewBox="606.1 12.302000000000021 55.77999999999997 45.93799999999999" width="51.78" height="41.94"><defs><path d="M609.45 46.85L611.57 55.24L654.3 55.24L656.31 46.85L609.45 46.85ZM609.23 45.73L607.1 37.35L610.34 35.22L613.03 32.42L615.71 29.18L617.95 25.72L619.51 21.8L620.63 17.89L621.53 13.3L644.79 13.3L645.46 16.88L646.58 21.35L648.14 25.49L650.38 29.41L653.06 32.65L655.64 35L658.88 37.35L656.53 45.73L652.62 43.05L648.7 39.47L644.68 34.66L642.1 30.75L640.32 26.95L639.42 24.26L638.86 21.69L627.23 21.69L626.34 24.49L625.33 27.73L623.65 30.63L620.74 35L616.94 39.13L613.03 42.83L609.23 45.73Z" id="bq4Eje6T"></path></defs><g><g><use xlink:href="#bq4Eje6T" opacity="1" fill="#000000" fill-opacity="1"></use><g><use xlink:href="#bq4Eje6T" opacity="1" fill-opacity="0" stroke="#000000" stroke-width="1.4" stroke-opacity="0"></use></g></g></g></svg>