<?xml version="1.0" encoding="UTF-8" standalone="no"?>
<!DOCTYPE svg PUBLIC "-//W3C//DTD SVG 1.1//EN" "http://www.w3.org/Graphics/SVG/1.1/DTD/svg11.dtd">
<svg version="1.1" xmlns="http://www.w3.org/2000/svg" xmlns:xlink="http://www.w3.org/1999/xlink" preserveAspectRatio="xMidYMid meet" viewBox="20.7078 326.22 42.4724 45.940999999999974" width="38.47" height="41.94"><defs><path d="M22.27 368.55L21.88 367.71L21.71 366.37L21.71 330.13L21.93 328.68L22.21 327.78L23.05 327.33L24.5 327.22L38.48 327.22L38.48 335.61L30.1 335.61L30.1 360.77L38.48 360.77L38.48 369.16L24.73 369.16L23.05 368.99L22.27 368.55ZM43.4 369.16L43.4 360.77L51.79 360.77L51.79 335.61L43.4 335.61L43.4 327.22L57.38 327.22L58.84 327.33L59.68 327.67L60.07 328.62L60.18 330.02L60.18 366.36L60.07 367.93L59.57 368.54L58.78 368.94L57.38 369.16L43.4 369.16Z" id="d2HxraeCCC"></path></defs><g><g><use xlink:href="#d2HxraeCCC" opacity="1" fill="#000000" fill-opacity="1"></use><g><use xlink:href="#d2HxraeCCC" opacity="1" fill-opacity="0" stroke="#000000" stroke-width="1.4" stroke-opacity="0"></use></g></g></g></svg>