<?xml version="1.0" encoding="UTF-8" standalone="no"?>
<!DOCTYPE svg PUBLIC "-//W3C//DTD SVG 1.1//EN" "http://www.w3.org/Graphics/SVG/1.1/DTD/svg11.dtd">
<svg version="1.1" xmlns="http://www.w3.org/2000/svg" xmlns:xlink="http://www.w3.org/1999/xlink" preserveAspectRatio="xMidYMid meet" viewBox="105.428 326.22 38.55799999999999 45.94" width="34.56" height="41.94"><defs><path d="M140.99 327.22L140.99 369.16L113.7 369.16L112.58 367.59L111.57 365.92L110.23 363.57L109.11 360.88L107.99 358.09L107.32 354.85L106.65 351.16L106.43 347.35L106.65 343.55L106.99 340.08L107.66 336.73L108.44 334.16L109.56 331.81L110.68 329.79L112.02 328.12L112.8 327.22L122.98 327.22L124.21 327.39L124.94 327.73L125.38 328.51L125.44 329.63L125.44 335.61L117.16 335.61L117.16 332.26L116.27 334.27L115.49 336.73L114.82 339.97L114.26 343.55L114.03 347.13L114.26 350.71L114.93 354.51L115.82 357.42L116.72 359.21L117.83 360.77L132.6 360.77L132.6 327.22L140.99 327.22Z" id="b2QNdtAUp"></path></defs><g><g><use xlink:href="#b2QNdtAUp" opacity="1" fill="#000000" fill-opacity="1"></use><g><use xlink:href="#b2QNdtAUp" opacity="1" fill-opacity="0" stroke="#000000" stroke-width="1.4" stroke-opacity="0"></use></g></g></g></svg>