<?xml version="1.0" encoding="UTF-8" standalone="no"?>
<!DOCTYPE svg PUBLIC "-//W3C//DTD SVG 1.1//EN" "http://www.w3.org/Graphics/SVG/1.1/DTD/svg11.dtd">
<svg version="1.1" xmlns="http://www.w3.org/2000/svg" xmlns:xlink="http://www.w3.org/1999/xlink" preserveAspectRatio="xMidYMid meet" viewBox="608.437 326.221 51.53099999999995 45.93900000000002" width="47.53" height="41.94"><defs><path d="M656.41 368.6L655.51 368.94L654.17 369.16L612.23 369.16L610.78 368.99L609.94 368.66L609.55 367.82L609.44 366.37L609.44 330.02L609.61 328.68L610 327.84L610.72 327.39L612.23 327.22L654.17 327.22L655.74 327.33L656.47 327.67L656.8 328.45L656.97 330.02L656.97 366.36L656.86 367.87L656.41 368.6ZM648.58 360.88L648.58 335.61L617.82 335.61L617.82 344L631.8 344L631.8 352.38L617.82 352.38L617.82 360.88L648.58 360.88Z" id="acQza16YE"></path></defs><g><g><use xlink:href="#acQza16YE" opacity="1" fill="#000000" fill-opacity="1"></use><g><use xlink:href="#acQza16YE" opacity="1" fill-opacity="0" stroke="#000000" stroke-width="1.4" stroke-opacity="0"></use></g></g></g></svg>